<?xml version="1.0" encoding="utf-8"?>
<!-- Generator: Adobe Illustrator 16.0.4, SVG Export Plug-In . SVG Version: 6.00 Build 0)  -->
<!DOCTYPE svg PUBLIC "-//W3C//DTD SVG 1.1//EN" "http://www.w3.org/Graphics/SVG/1.1/DTD/svg11.dtd">
<svg version="1.1" id="Layer_1" xmlns="http://www.w3.org/2000/svg" xmlns:xlink="http://www.w3.org/1999/xlink" x="0px" y="0px"
	 width="841.89px" height="595.28px" viewBox="0 0 841.89 595.28" enable-background="new 0 0 841.89 595.28" xml:space="preserve">
<g>
	<polygon points="418.811,305.646 415.393,311.556 430.1,311.556 419.74,293.557 406.33,316.793 439.158,316.793 419.74,283.109 
		397.254,322.046 448.233,322.046 419.74,272.627 388.139,327.271 457.366,327.271 419.74,262.145 379.068,332.523 466.429,332.523 
		419.74,251.681 373.027,332.523 375.499,332.523 419.74,255.953 462.717,330.387 382.775,330.387 419.74,266.411 453.658,325.138 
		391.838,325.138 419.74,276.897 444.538,319.908 400.958,319.908 419.74,287.381 435.463,314.655 410.029,314.655 419.74,297.835 
		426.409,309.422 419.092,309.422 420.666,306.714 	"/>
	<g>
		<g>
			<polygon points="429.097,406.829 429.097,409.9 435.802,409.9 420.466,451.779 405.208,409.9 411.762,409.9 411.762,406.829 
				395.607,406.829 395.607,409.9 401.676,409.9 419.047,456.87 419.227,457.348 421.559,457.348 439.188,409.9 445.256,409.9 
				445.256,406.829 			"/>
			<polygon points="431.291,174.464 431.291,183.749 412.056,183.749 412.056,140.323 419.145,140.323 419.145,137.252 
				408.691,137.252 408.691,183.749 401.745,183.749 401.745,186.82 434.578,186.82 434.578,174.464 			"/>
		</g>
		<g>
			<polygon points="303.18,454.275 287.058,410.851 293.245,410.851 293.245,407.779 274.748,407.779 274.748,410.851 
				281.009,410.851 264.808,454.275 258.882,454.275 258.882,457.348 275.042,457.348 275.042,454.275 268.34,454.275 
				284.031,412.005 299.583,454.275 293.024,454.275 293.024,457.348 309.18,457.348 309.18,454.275 			"/>
			<polygon points="303.18,183.749 287.058,140.323 293.245,140.323 293.245,137.252 274.748,137.252 274.748,140.323 
				281.009,140.323 264.808,183.749 258.882,183.749 258.882,186.82 275.042,186.82 275.042,183.749 268.34,183.749 
				284.031,141.478 299.583,183.749 293.024,183.749 293.024,186.82 309.18,186.82 309.18,183.749 			"/>
			<path d="M302.417,280.904l4.67-4.67l-2.374-2.378l-4.601,4.599c-4.348-4.07-10.132-6.542-16.592-6.542
				c-13.814,0-24.639,11.206-24.639,25.514c0,6.361,2.149,12.102,5.739,16.522l-4.67,4.671l2.378,2.373l4.596-4.597
				c4.352,4.075,10.136,6.547,16.596,6.547c13.814,0,24.635-11.208,24.635-25.517C308.156,291.066,306.011,285.326,302.417,280.904z
				 M266.9,311.67c-2.888-3.822-4.58-8.736-4.58-14.243c0-12.794,9.112-22.444,21.201-22.444c5.657,0,10.646,2.133,14.369,5.695
				L266.9,311.67z M283.521,319.872c-5.657,0-10.649-2.134-14.373-5.698l30.994-30.991c2.884,3.823,4.581,8.738,4.581,14.244
				C304.722,310.222,295.606,319.872,283.521,319.872z"/>
		</g>
		<g>
			<polygon points="577.104,419.771 577.104,407.779 542.442,407.779 542.442,410.851 549.393,410.851 549.393,430.44 
				542.442,430.44 542.442,433.589 549.393,433.589 549.393,454.275 542.442,454.275 542.442,457.348 577.104,457.348 
				577.104,445.355 573.808,445.355 573.808,454.275 552.754,454.275 552.754,410.851 573.808,410.851 573.808,419.771 			"/>
			<path d="M558.309,164.522v3.069h15.499v3.092h-15.499v3.004h15.499v5.396c-5.155,4.066-10.784,6.128-16.739,6.128
				c-11.95,0-20.621-9.193-20.621-21.859c0-13.301,9.038-22.955,21.494-22.955c5.865,0,10.588,2.109,13.076,4.572h4.201
				c-2.569-3.969-8.949-7.717-17.204-7.717c-14.21,0.082-24.929,11.3-24.929,26.1c0,16.367,12.024,24.931,23.909,24.931
				c6.265,0,11.502-1.703,16.812-5.494v4.762h3.296v-23.028H558.309z"/>
			<path d="M574.403,319.142l-11.869-18.794c7.431-1.677,11.828-6.724,11.828-13.668c0-8.263-6.885-14.037-16.739-14.037h-18.647
				v3.071h6.95v43.427h-6.95v3.067h41.603v-3.067H574.403z M549.286,319.142v-43.427h8.19c8.174,0,13.451,4.305,13.451,10.965
				c0,6.752-4.601,10.747-13.614,11.102l13.125,21.36H549.286z"/>
		</g>
	</g>
</g>
</svg>
