<?xml version="1.0" encoding="utf-8"?>
<!-- Generator: Adobe Illustrator 16.0.4, SVG Export Plug-In . SVG Version: 6.00 Build 0)  -->
<!DOCTYPE svg PUBLIC "-//W3C//DTD SVG 1.1//EN" "http://www.w3.org/Graphics/SVG/1.1/DTD/svg11.dtd">
<svg version="1.1" id="Layer_1" xmlns="http://www.w3.org/2000/svg" xmlns:xlink="http://www.w3.org/1999/xlink" x="0px" y="0px"
	 width="841.89px" height="595.28px" viewBox="0 0 841.89 595.28" enable-background="new 0 0 841.89 595.28" xml:space="preserve">
<polygon points="223.518,326.113 223.518,340.628 193.442,340.628 193.442,272.744 204.531,272.744 204.531,267.951 
	188.186,267.951 188.186,340.628 177.33,340.628 177.33,345.43 228.652,345.43 228.648,326.113 "/>
<polygon points="100.801,268.494 100.807,273.285 110.59,273.285 85.261,341.168 76,341.168 76,345.97 101.258,345.97 
	101.258,341.168 90.788,341.168 115.308,275.098 139.624,341.168 129.377,341.168 129.373,345.97 154.631,345.97 154.631,341.168 
	145.256,341.168 120.044,273.285 129.712,273.285 129.712,268.494 "/>
<path d="M385.168,342.321c-8.855,0-16.649-3.336-22.475-8.901l48.455-48.449c4.506,5.988,7.164,13.661,7.164,22.274
	C418.312,327.238,404.056,342.321,385.168,342.321 M359.173,329.5c-4.51-5.971-7.151-13.652-7.151-22.255
	c0-20.001,14.249-35.092,33.146-35.092c8.841,0,16.636,3.326,22.458,8.908L359.173,329.5z M414.7,281.415l7.305-7.307l-3.715-3.71
	l-7.185,7.19c-6.804-6.368-15.844-10.238-25.938-10.238c-21.6,0-38.523,17.531-38.523,39.896c0,9.942,3.361,18.91,8.973,25.821
	l-7.304,7.29l3.717,3.718l7.189-7.182c6.804,6.36,15.849,10.222,25.948,10.222c21.591,0,38.507-17.522,38.507-39.869
	C423.675,297.301,420.322,288.326,414.7,281.415"/>
<path d="M289.407,309.98v4.801h24.232v4.835h-24.232v4.684h24.232v8.436c-8.063,6.358-16.861,9.577-26.168,9.577
	c-18.681,0-32.24-14.362-32.24-34.162c0-20.79,14.127-35.881,33.609-35.881c9.166,0,16.55,3.295,20.441,7.148h6.558
	c-4.017-6.208-13.98-12.068-26.887-12.068c-22.216,0.128-38.978,17.672-38.976,40.801c0,25.575,18.805,38.965,37.382,38.965
	c9.791,0,17.976-2.66,26.281-8.58v7.435h5.153V309.98H289.407z"/>
<polygon points="557.495,268.494 557.495,273.285 567.161,273.285 541.957,341.161 532.576,341.161 532.576,345.979 
	557.834,345.979 557.834,341.161 547.588,341.161 571.9,275.098 596.425,341.168 585.953,341.161 585.953,345.979 611.212,345.979 
	611.212,341.161 601.947,341.161 576.616,273.295 586.406,273.295 586.406,268.494 "/>
<polygon points="665.646,267.748 665.646,272.55 676.129,272.55 652.155,338.01 628.297,272.55 638.547,272.55 638.547,267.748 
	613.289,267.748 613.289,272.55 622.778,272.55 649.937,345.96 650.213,346.724 653.857,346.724 681.426,272.55 690.902,272.55 
	690.902,267.748 "/>
<polygon points="709.326,267.748 709.326,272.55 720.196,272.55 720.196,303.178 709.326,303.178 709.326,308.1 720.196,308.1 
	720.196,340.424 709.326,340.424 709.326,345.242 763.512,345.242 763.512,326.494 758.363,326.494 758.363,340.424 725.45,340.424 
	725.45,272.55 758.363,272.55 758.363,286.491 763.512,286.491 763.512,267.748 "/>
<path d="M463.863,341.168v-67.874h12.803c12.783,0,21.032,6.733,21.032,17.149c0,10.552-7.188,16.793-21.287,17.351l20.525,33.374
	H463.863z M503.137,341.168l-18.562-29.367c11.611-2.616,18.494-10.51,18.494-21.357c0-12.922-10.763-21.95-26.176-21.95h-29.14
	l-0.004,4.8h10.855v67.884l-10.855-0.01l0.004,4.812h65.039v-4.802L503.137,341.168z"/>
</svg>
